<svg version="1.1" xmlns="http://www.w3.org/2000/svg" viewBox="0 0 512 512">
    <g id="border">
        <path fill="#AF8E5F" d="M14,471.8c-6.4,0-11.5-5.2-11.5-11.5V51.7c0-6.4,5.2-11.5,11.5-11.5h484c6.4,0,11.5,5.2,11.5,11.5v408.5
		c0,6.4-5.2,11.5-11.5,11.5L14,471.8L14,471.8z"/>
        <path fill="#593A24" d="M498,42.7c5,0,9,4.1,9,9v408.5c0,5-4.1,9-9,9H14c-5,0-9-4.1-9-9V51.7c0-5,4.1-9,9-9H498 M498,37.7H14
		c-7.7,0-14,6.3-14,14v408.5c0,7.7,6.3,14,14,14h484c7.7,0,14-6.3,14-14V51.7C512,44,505.7,37.7,498,37.7L498,37.7z"/>
    </g>
    <rect id="bg"
          x="44.1"
          y="82.2"
          fill="#333230"
          stroke="#333230"
          stroke-miterlimit="10"
          width="424.2"
          height="350.8"/>
    <g id="txt">
        <path fill="#FFFFFF"
              d="M132.4,141.3l97.7,82.2l-97.7,82.3L109.9,283l71.8-59.1l-71.8-59.6L132.4,141.3z"/>
        <path fill="#FFFFFF" d="M244.9,362v-28h163.2v28H244.9z"/>
    </g>
</svg>
